<svg width="26" height="22" viewBox="0 0 26 22" fill="none" xmlns="http://www.w3.org/2000/svg">
<path d="M20.605 9.26018C20.605 8.73818 20.75 8.21618 20.75 7.52018C20.75 3.69218 18.14 0.560181 14.95 0.560181C12.63 0.560181 10.745 2.12618 9.73001 4.38818C9.44001 4.21418 8.86001 4.04018 8.42501 4.04018C6.39501 4.04018 4.80001 5.95418 4.80001 8.39018C4.80001 8.73818 4.80001 9.08618 4.94501 9.26018C2.33501 9.78218 0.450012 12.2182 0.450012 15.3502C0.450012 18.6562 2.77001 21.4402 5.52501 21.4402H20.025C22.78 21.4402 25.1 18.6562 25.1 15.3502C25.1 12.2182 23.215 9.60818 20.605 9.26018Z" fill="white"/>
</svg>
